<svg width="23" height="23" viewBox="0 0 23 23" fill="none" xmlns="http://www.w3.org/2000/svg">
<path d="M21.9855 1.17321C21.2044 0.392165 19.9381 0.392166 19.157 1.17321L13.0659 7.26437C12.2848 8.04542 11.0185 8.04542 10.2374 7.26438L4.307 1.33393C3.52595 0.552879 2.25962 0.552881 1.47857 1.33393L1.3338 1.4787C0.552753 2.25975 0.552753 3.52608 1.3338 4.30713L7.26425 10.2376C8.0453 11.0186 8.0453 12.285 7.26425 13.066L1.17309 19.1572C0.392039 19.9382 0.392039 21.2045 1.17309 21.9856L1.26429 22.0768C2.04533 22.8578 3.31166 22.8578 4.09271 22.0768L10.1839 15.9856C10.9649 15.2046 12.2313 15.2046 13.0123 15.9856L18.9427 21.9161C19.7238 22.6971 20.9901 22.6971 21.7712 21.9161L21.9159 21.7713C22.697 20.9903 22.697 19.7239 21.9159 18.9429L15.9855 13.0124C15.2044 12.2314 15.2044 10.9651 15.9855 10.184L22.0767 4.09284C22.8577 3.31179 22.8577 2.04546 22.0767 1.26441L21.9855 1.17321Z" fill="#4292F6"/>
</svg>
