<svg width="23" height="23" viewBox="0 0 23 23" fill="none" xmlns="http://www.w3.org/2000/svg">
<path d="M11.4459 0C5.13475 0 0 5.1589 0 11.5C0 17.8411 5.1589 23 11.5 23C17.8411 23 23 17.8411 23 11.5C23 5.1589 17.8169 0 11.4459 0ZM12.65 16.25C12.65 16.8023 12.2023 17.25 11.65 17.25H11.35C10.7977 17.25 10.35 16.8023 10.35 16.25V15.95C10.35 15.3977 10.7977 14.95 11.35 14.95H11.65C12.2023 14.95 12.65 15.3977 12.65 15.95V16.25ZM12.65 11.65C12.65 12.2023 12.2023 12.65 11.65 12.65H11.35C10.7977 12.65 10.35 12.2023 10.35 11.65V6.75C10.35 6.19772 10.7977 5.75 11.35 5.75H11.65C12.2023 5.75 12.65 6.19772 12.65 6.75V11.65Z" fill="#595959"/>
</svg>
