<svg width="27" height="33" viewBox="0 0 27 33" fill="none" xmlns="http://www.w3.org/2000/svg">
<path d="M3.375 0C2.47989 0 1.62145 0.347677 0.988514 0.966547C0.355579 1.58542 0 2.42479 0 3.3V29.7C0 30.5752 0.355579 31.4146 0.988514 32.0335C1.62145 32.6523 2.47989 33 3.375 33H23.625C24.5201 33 25.3785 32.6523 26.0115 32.0335C26.6444 31.4146 27 30.5752 27 29.7V10.3208C27 10.0517 26.8915 9.79394 26.6991 9.6058L17.1665 0.284993C16.9796 0.102296 16.7287 0 16.4674 0H3.375ZM16.875 11.55H16.1875C15.6352 11.55 15.1875 11.1023 15.1875 10.55V5.67637C15.1875 4.79087 16.2535 4.34229 16.8866 4.96136L21.871 9.83499C22.5119 10.4616 22.0682 11.55 21.1719 11.55H16.875Z" fill="#6B81B9"/>
</svg>
