<svg width="32" height="32" viewBox="0 0 32 32" fill="none" xmlns="http://www.w3.org/2000/svg">
<path d="M16 0C24.8368 0 32 7.1632 32 16C32 24.8368 24.8368 32 16 32C13.4088 32 10.961 31.3843 8.7958 30.2908C8.58249 30.183 8.33893 30.1485 8.10564 30.2003L1.5339 31.6594C0.819415 31.8181 0.182151 31.1806 0.340976 30.4662L1.80123 23.8975C1.85309 23.6642 1.8186 23.4207 1.71091 23.2074C0.617174 21.0408 0 18.5928 0 16C0 7.1632 7.1632 0 16 0ZM17.6 9C17.6 8.44772 17.1523 8 16.6 8H15.4C14.8477 8 14.4 8.44772 14.4 9V18.2C14.4 18.7523 14.8477 19.2 15.4 19.2H23C23.5523 19.2 24 18.7523 24 18.2V17C24 16.4477 23.5523 16 23 16H18.6C18.0477 16 17.6 15.5523 17.6 15V9Z" fill="#6B81B9"/>
</svg>
