<svg width="31" height="32" viewBox="0 0 31 32" fill="none" xmlns="http://www.w3.org/2000/svg">
<path d="M15.5024 2.77477C7.71207 2.77477 1.1291 9.46735 1.1291 17.3874C1.1291 25.3074 7.71207 32 15.5024 32C23.2943 32 29.8757 25.3074 29.8757 17.3874C29.8757 9.46735 23.2943 2.77477 15.5024 2.77477ZM23.4876 17.3874C23.4876 18.2841 22.7606 19.011 21.8639 19.011H15.9054C14.8008 19.011 13.9054 18.1156 13.9054 17.011V10.8663C13.9054 9.98429 14.6204 9.26927 15.5024 9.26927C16.3844 9.26927 17.0994 9.98428 17.0994 10.8663V13.7638C17.0994 14.8683 17.9949 15.7638 19.0994 15.7638H21.8639C22.7606 15.7638 23.4876 16.4907 23.4876 17.3874ZM29.8912 6.0021C29.2613 6.6448 28.2269 6.64657 27.5947 6.00604L25.0506 3.42809C24.4331 2.80243 24.4314 1.79723 25.0467 1.16945C25.6766 0.526748 26.711 0.524973 27.3432 1.16551L29.8874 3.74346C30.5048 4.36912 30.5065 5.37432 29.8912 6.0021ZM3.62747 1.17391C4.25742 0.531327 5.29163 0.529369 5.92401 1.16956C6.54219 1.79537 6.5441 2.80136 5.92829 3.42951L3.40986 5.99843C2.7796 6.64134 1.74477 6.64293 1.11252 6.00197C0.495099 5.37604 0.49355 4.37067 1.10904 3.74284L3.62747 1.17391Z" fill="#4292F6"/>
</svg>
