<svg width="35" height="33" viewBox="0 0 35 33" fill="none" xmlns="http://www.w3.org/2000/svg">
<path d="M31.5 6.94737H27.25C26.6977 6.94737 26.25 6.49965 26.25 5.94737V3.47368C26.25 1.55795 24.6803 0 22.75 0H12.25C10.3197 0 8.75 1.55795 8.75 3.47368V5.94737C8.75 6.49965 8.30228 6.94737 7.75 6.94737H3.5C1.56975 6.94737 0 8.50532 0 10.4211V29.5263C0 31.4421 1.56975 33 3.5 33H31.5C33.4302 33 35 31.4421 35 29.5263V10.4211C35 8.50532 33.4302 6.94737 31.5 6.94737ZM7 11.4211C7 10.8688 7.44772 10.4211 8 10.4211H9.5C10.0523 10.4211 10.5 10.8688 10.5 11.4211V28.5263C10.5 29.0786 10.0523 29.5263 9.5 29.5263H8C7.44772 29.5263 7 29.0786 7 28.5263V11.4211ZM28 28.5263C28 29.0786 27.5523 29.5263 27 29.5263H25.5C24.9477 29.5263 24.5 29.0786 24.5 28.5263V11.4211C24.5 10.8688 24.9477 10.4211 25.5 10.4211H27C27.5523 10.4211 28 10.8688 28 11.4211V28.5263ZM21.75 3.47368C22.3023 3.47368 22.75 3.9214 22.75 4.47368V5.94737C22.75 6.49965 22.3023 6.94737 21.75 6.94737H13.25C12.6977 6.94737 12.25 6.49965 12.25 5.94737V4.47368C12.25 3.9214 12.6977 3.47368 13.25 3.47368H21.75Z" fill="#6B81B9"/>
</svg>
