<svg width="33" height="33" viewBox="0 0 33 33" fill="none" xmlns="http://www.w3.org/2000/svg">
<path d="M16.5026 2.86148C8.20962 2.86148 1.20195 9.7632 1.20195 17.9307C1.20195 26.0983 8.20962 33 16.5026 33C24.7972 33 31.8032 26.0983 31.8032 17.9307C31.8032 9.7632 24.7972 2.86148 16.5026 2.86148ZM25.0029 17.9307C25.0029 18.8555 24.2532 19.6051 23.3285 19.6051H16.8025C15.6979 19.6051 14.8025 18.7097 14.8025 17.6051V11.259C14.8025 10.3201 15.5636 9.55893 16.5026 9.55893C17.4415 9.55893 18.2026 10.3201 18.2026 11.259V14.2564C18.2026 15.3609 19.098 16.2564 20.2026 16.2564H23.3285C24.2532 16.2564 25.0029 17.006 25.0029 17.9307ZM31.7816 6.22732C31.1259 6.87541 30.0714 6.87722 29.4134 6.23138L26.7048 3.57262C26.0327 2.91281 26.0308 1.83045 26.7007 1.16834C27.3564 0.520241 28.4109 0.518433 29.0689 1.16427L31.7775 3.82304C32.4496 4.48285 32.4515 5.56521 31.7816 6.22732ZM3.89948 1.17307C4.55527 0.525032 5.6097 0.523036 6.26794 1.16858C6.94095 1.82861 6.943 2.91192 6.2725 3.57449L3.59185 6.22344C2.93573 6.8718 1.88066 6.87343 1.22254 6.22709C0.550332 5.56692 0.548663 4.48426 1.21883 3.82202L3.89948 1.17307Z" fill="#888888"/>
</svg>
