<svg width="30" height="30" viewBox="0 0 30 30" fill="none" xmlns="http://www.w3.org/2000/svg">
<path d="M27.8334 0.939971C27.0524 0.158922 25.786 0.158922 25.005 0.939969L16.3076 9.6373C15.5266 10.4184 14.2603 10.4183 13.4792 9.6373L4.78189 0.939969C4.00084 0.158921 2.73451 0.158923 1.95346 0.939971L0.939971 1.95346C0.158922 2.73451 0.158921 4.00084 0.93997 4.78189L9.6373 13.4792C10.4183 14.2603 10.4183 15.5266 9.6373 16.3076L0.939968 25.005C0.15892 25.786 0.158922 27.0524 0.93997 27.8334L1.95346 28.8469C2.73451 29.6279 4.00084 29.6279 4.78189 28.8469L13.4792 20.1496C14.2603 19.3685 15.5266 19.3685 16.3076 20.1496L25.005 28.8469C25.786 29.6279 27.0524 29.6279 27.8334 28.8469L28.8469 27.8334C29.6279 27.0524 29.6279 25.786 28.8469 25.005L20.1496 16.3076C19.3685 15.5266 19.3685 14.2603 20.1496 13.4792L28.8469 4.78189C29.6279 4.00084 29.6279 2.73451 28.8469 1.95346L27.8334 0.939971Z" fill="#888888"/>
</svg>
